<?xml version="1.0" encoding="UTF-8" standalone="no"?>
<svg
   width="24"
   height="24"
   viewBox="0 0 24 24"
   fill="none"
   version="1.1"
   id="svg1"
   sodipodi:docname="up.svg"
   inkscape:version="1.3.2 (091e20e, 2023-11-25, custom)"
   xmlns:inkscape="http://www.inkscape.org/namespaces/inkscape"
   xmlns:sodipodi="http://sodipodi.sourceforge.net/DTD/sodipodi-0.dtd"
   xmlns="http://www.w3.org/2000/svg"
   xmlns:svg="http://www.w3.org/2000/svg">
  <defs
     id="defs1" />
  <sodipodi:namedview
     id="namedview1"
     pagecolor="#ffffff"
     bordercolor="#000000"
     borderopacity="0.25"
     inkscape:showpageshadow="2"
     inkscape:pageopacity="0.0"
     inkscape:pagecheckerboard="0"
     inkscape:deskcolor="#d1d1d1"
     inkscape:zoom="16.9375"
     inkscape:cx="14.760148"
     inkscape:cy="13.904059"
     inkscape:window-width="1920"
     inkscape:window-height="1009"
     inkscape:window-x="-8"
     inkscape:window-y="-8"
     inkscape:window-maximized="1"
     inkscape:current-layer="svg1" />
  <g
     id="Frame"
     transform="rotate(180,12,12)">
    <path
       id="Vector"
       d="m 12,9 v 13 m 0,0 3,-3 M 12,22 9,19 M 12,6 C 11.4696,6 10.9609,5.78929 10.5858,5.41421 10.2107,5.03914 10,4.53043 10,4 10,3.46957 10.2107,2.96086 10.5858,2.58579 10.9609,2.21071 11.4696,2 12,2 12.5304,2 13.0391,2.21071 13.4142,2.58579 13.7893,2.96086 14,3.46957 14,4 14,4.53043 13.7893,5.03914 13.4142,5.41421 13.0391,5.78929 12.5304,6 12,6 Z"
       stroke="#7d3cfd"
       stroke-width="1.17434"
       stroke-linecap="round"
       stroke-linejoin="round" />
  </g>
</svg>
